<svg width="1175" height="210" viewBox="0 0 1175 210" fill="none" xmlns="http://www.w3.org/2000/svg">
<path d="M45.4958 200.673C31.7084 193.535 19.8904 180.757 16.7294 169.569C15.4458 165.026 14.8077 144.779 15.3116 124.576C15.8153 104.372 15.1098 79.2332 13.7439 68.711C12.3778 58.1886 11.8725 49.6184 12.6211 49.6668C21.0746 50.2132 46.4433 68.7913 50.1807 77.1732C51.5783 80.3066 52.6685 99.5204 52.6031 119.872C52.4787 158.689 55.9393 173.394 70.2832 195.003C75.9713 203.572 76.3134 205.47 72.3193 206.294C63.7254 208.068 57.0938 206.677 45.4958 200.673Z" fill="#0D5060"/>
<path d="M118.434 206.663C102.748 201.659 85.74 186.557 77.747 170.539C71.0829 157.183 70.8314 155.323 69.0897 106.567C67.3301 57.3041 64.1069 24.5906 59.5169 9.40911C56.0809 -1.95551 56.205 -2.02602 69.1984 3.90569C84.2662 10.7846 100.086 25.4233 103.374 35.5312C104.755 39.7774 106.872 61.9193 108.079 84.7351C109.286 107.551 111.504 132.032 113.007 139.135C118.174 163.559 133.711 196.622 143.441 203.895C146.36 206.078 146.458 206.972 143.937 208.413C139.366 211.026 130.115 210.392 118.435 206.665L118.434 206.663Z" fill="#5A517E"/>
<path d="M162.3 181.306C147.972 175.075 135.153 163.092 131.097 152.137C129.45 147.689 127.179 127.536 126.051 107.353C124.922 87.1697 122.189 62.1415 119.977 51.7347C117.765 41.3278 116.569 32.8125 117.32 32.8125C125.795 32.8125 152.598 49.7067 157.002 57.8257C158.649 60.861 161.288 79.9543 162.865 100.257C165.875 138.981 170.514 153.424 186.565 174.053C192.93 182.232 193.424 184.103 189.507 185.183C181.079 187.506 174.352 186.547 162.3 181.306Z" fill="#0D5060"/>
<path d="M411.828 80.6289C407.792 89.6784 403.43 98.5977 398.742 107.387C394.055 116.111 389.139 124.379 383.996 132.191C378.918 140.004 373.71 147.23 368.371 153.871C363.033 160.447 357.727 166.143 352.453 170.961C347.245 175.714 342.134 179.457 337.121 182.191C332.173 184.861 327.486 186.195 323.059 186.195C321.236 186.195 319.543 185.87 317.98 185.219C316.418 184.568 315.051 183.689 313.879 182.582C312.707 181.41 311.796 180.043 311.145 178.48C310.493 176.918 310.168 175.225 310.168 173.402V126.039L259.777 182.387C258.475 183.689 257.043 184.665 255.48 185.316C253.983 185.902 252.421 186.195 250.793 186.195C249.035 186.195 247.375 185.87 245.812 185.219C244.315 184.568 242.98 183.689 241.809 182.582C240.637 181.41 239.693 180.043 238.977 178.48C238.326 176.918 238 175.225 238 173.402V80.6289H263.391V140.785L313.977 84.2422C315.799 82.4193 317.948 81.2799 320.422 80.8242C322.961 80.3034 325.435 80.5638 327.844 81.6055C330.253 82.582 332.141 84.1445 333.508 86.293C334.94 88.3763 335.656 90.6875 335.656 93.2266V153.578C341.125 148.305 346.073 142.738 350.5 136.879C354.927 131.02 359.029 124.997 362.805 118.812C366.646 112.562 370.227 106.247 373.547 99.8672C376.932 93.4219 380.22 87.0091 383.41 80.6289H411.828Z" fill="#0D5060"/>
<path d="M525.305 151.234C525.305 154.75 524.686 158.559 523.449 162.66C522.212 166.697 520.194 170.473 517.395 173.988C514.66 177.439 511.047 180.336 506.555 182.68C502.128 185.023 496.724 186.195 490.344 186.195H444.543C441.027 186.195 437.219 185.577 433.117 184.34C429.081 183.103 425.305 181.117 421.789 178.383C418.339 175.583 415.441 171.97 413.098 167.543C410.754 163.051 409.582 157.615 409.582 151.234C409.582 147.719 410.201 143.91 411.438 139.809C412.674 135.707 414.66 131.931 417.395 128.48C420.194 124.965 423.807 122.035 428.234 119.691C432.727 117.348 438.163 116.176 444.543 116.176H490.344V140.395H444.543C441.092 140.395 438.423 141.469 436.535 143.617C434.647 145.701 433.703 148.305 433.703 151.43C433.703 154.75 434.777 157.354 436.926 159.242C439.139 161.065 441.743 161.977 444.738 161.977H490.344C493.794 161.977 496.464 160.935 498.352 158.852C500.24 156.768 501.184 154.164 501.184 151.039V115.59C501.184 112.27 500.142 109.633 498.059 107.68C496.04 105.727 493.469 104.75 490.344 104.75H434.582V80.6289H490.344C493.859 80.6289 497.635 81.2474 501.672 82.4844C505.773 83.7214 509.549 85.7396 513 88.5391C516.516 91.2734 519.445 94.8867 521.789 99.3789C524.133 103.806 525.305 109.21 525.305 115.59V151.234Z" fill="#0D5060"/>
<path d="M672.961 80.6289C670.096 89.5482 666.743 98.3372 662.902 106.996C659.061 115.655 654.634 123.923 649.621 131.801C644.673 139.613 639.107 146.872 632.922 153.578C626.802 160.219 619.999 165.98 612.512 170.863C605.09 175.681 596.984 179.49 588.195 182.289C579.471 185.023 569.999 186.391 559.777 186.391C558.02 186.391 556.359 186.065 554.797 185.414C553.234 184.763 551.867 183.884 550.695 182.777C549.523 181.605 548.612 180.271 547.961 178.773C547.31 177.211 546.984 175.551 546.984 173.793V80.6289H572.375V160.023C578.56 160.023 584.484 158.689 590.148 156.02C595.878 153.35 601.281 149.835 606.359 145.473C611.438 141.046 616.125 136.033 620.422 130.434C624.784 124.835 628.658 119.105 632.043 113.246C635.428 107.322 638.293 101.527 640.637 95.8633C643.046 90.1992 644.836 85.1211 646.008 80.6289H672.961Z" fill="#0D5060"/>
<path d="M795.715 115.59C795.715 119.105 795.096 122.914 793.859 127.016C792.622 131.052 790.604 134.828 787.805 138.344C785.07 141.794 781.457 144.691 776.965 147.035C772.538 149.379 767.134 150.551 760.754 150.551H714.953V126.43H760.754C764.204 126.43 766.874 125.388 768.762 123.305C770.65 121.156 771.594 118.52 771.594 115.395C771.594 112.074 770.52 109.47 768.371 107.582C766.288 105.694 763.749 104.75 760.754 104.75H714.953C711.503 104.75 708.833 105.824 706.945 107.973C705.057 110.056 704.113 112.66 704.113 115.785V151.234C704.113 154.62 705.155 157.257 707.238 159.145C709.387 161.033 712.023 161.977 715.148 161.977H760.754V186.195H714.953C711.438 186.195 707.629 185.577 703.527 184.34C699.491 183.103 695.715 181.117 692.199 178.383C688.749 175.583 685.852 171.97 683.508 167.543C681.164 163.051 679.992 157.615 679.992 151.234V115.59C679.992 112.074 680.611 108.298 681.848 104.262C683.085 100.16 685.07 96.3841 687.805 92.9336C690.604 89.418 694.217 86.4883 698.645 84.1445C703.137 81.8008 708.573 80.6289 714.953 80.6289H760.754C764.27 80.6289 768.046 81.2474 772.082 82.4844C776.184 83.7214 779.96 85.7396 783.41 88.5391C786.926 91.2734 789.855 94.8867 792.199 99.3789C794.543 103.806 795.715 109.21 795.715 115.59Z" fill="#0D5060"/>
<path d="M927.648 150.551C927.648 154.913 927.095 158.852 925.988 162.367C924.882 165.818 923.417 168.878 921.594 171.547C919.771 174.151 917.655 176.397 915.246 178.285C912.837 180.108 910.298 181.605 907.629 182.777C905.025 183.949 902.355 184.828 899.621 185.414C896.952 185.935 894.413 186.195 892.004 186.195H846.203C842.688 186.195 838.846 185.577 834.68 184.34C830.513 183.103 826.639 181.085 823.059 178.285C819.543 175.421 816.581 171.742 814.172 167.25C811.828 162.693 810.656 157.126 810.656 150.551V116.176C810.656 109.665 811.828 104.164 814.172 99.6719C816.581 95.1146 819.543 91.4362 823.059 88.6367C826.639 85.7721 830.513 83.7214 834.68 82.4844C838.846 81.2474 842.688 80.6289 846.203 80.6289H892.004C898.514 80.6289 904.048 81.8008 908.605 84.1445C913.163 86.4883 916.841 89.4505 919.641 93.0312C922.44 96.5469 924.458 100.388 925.695 104.555C926.997 108.721 927.648 112.595 927.648 116.176V150.551ZM902.258 116.371C902.258 112.855 901.379 110.251 899.621 108.559C897.863 106.866 895.324 106.02 892.004 106.02H846.398C843.013 106.02 840.441 106.898 838.684 108.656C836.926 110.349 836.047 112.855 836.047 116.176V150.551C836.047 153.871 836.926 156.41 838.684 158.168C840.441 159.926 843.013 160.805 846.398 160.805H892.004C895.454 160.805 898.026 159.926 899.719 158.168C901.411 156.41 902.258 153.871 902.258 150.551V116.371Z" fill="#0D5060"/>
<path d="M1041.71 106.02H984.582C981.132 106.02 978.527 106.898 976.77 108.656C975.012 110.349 974.133 112.855 974.133 116.176V186.195H948.742V116.176C948.742 111.814 949.296 107.908 950.402 104.457C951.509 101.007 952.974 97.9792 954.797 95.375C956.685 92.7057 958.833 90.4596 961.242 88.6367C963.651 86.7487 966.158 85.2188 968.762 84.0469C971.431 82.875 974.1 82.0286 976.77 81.5078C979.504 80.9219 982.043 80.6289 984.387 80.6289H1041.71V106.02Z" fill="#0D5060"/>
<path d="M1174.91 150.551C1174.91 152.96 1174.62 155.499 1174.04 158.168C1173.51 160.837 1172.67 163.507 1171.5 166.176C1170.32 168.78 1168.79 171.286 1166.91 173.695C1165.08 176.104 1162.84 178.253 1160.17 180.141C1157.56 181.964 1154.54 183.428 1151.09 184.535C1147.64 185.642 1143.73 186.195 1139.37 186.195H1093.57C1091.16 186.195 1088.62 185.935 1085.95 185.414C1083.28 184.828 1080.61 183.949 1077.94 182.777C1075.34 181.605 1072.83 180.108 1070.42 178.285C1068.01 176.397 1065.86 174.151 1063.98 171.547C1062.15 168.878 1060.69 165.818 1059.58 162.367C1058.48 158.852 1057.92 154.913 1057.92 150.551V36H1083.31V150.551C1083.31 153.676 1084.29 156.182 1086.24 158.07C1088.2 159.893 1090.64 160.805 1093.57 160.805H1139.37C1142.56 160.805 1145.03 159.861 1146.79 157.973C1148.61 156.085 1149.52 153.611 1149.52 150.551V116.176C1149.52 112.986 1148.58 110.512 1146.69 108.754C1144.8 106.931 1142.36 106.02 1139.37 106.02H1093.57V80.6289H1139.37C1141.78 80.6289 1144.32 80.9219 1146.98 81.5078C1149.65 82.0286 1152.29 82.875 1154.89 84.0469C1157.56 85.2188 1160.1 86.7487 1162.51 88.6367C1164.92 90.4596 1167.04 92.7057 1168.86 95.375C1170.68 97.9792 1172.15 101.007 1173.25 104.457C1174.36 107.908 1174.91 111.814 1174.91 116.176V150.551Z" fill="#0D5060"/>
</svg>
