<svg width="937" height="373" viewBox="0 0 937 373" fill="none" xmlns="http://www.w3.org/2000/svg">
<path d="M417.496 200.649C403.709 193.512 391.89 180.733 388.729 169.546C387.446 165.003 386.808 144.755 387.312 124.552C387.815 104.349 387.11 79.2098 385.744 68.6876C384.378 58.1652 383.873 49.595 384.621 49.6434C393.075 50.1898 418.443 68.7679 422.181 77.1497C423.579 80.2832 424.669 99.497 424.603 119.849C424.479 158.665 427.94 173.371 442.284 194.98C447.972 203.549 448.314 205.446 444.32 206.271C435.726 208.044 429.094 206.654 417.496 200.649Z" fill="#0D5060"/>
<path d="M490.436 206.663C474.75 201.659 457.742 186.557 449.749 170.539C443.085 157.183 442.833 155.323 441.092 106.567C439.332 57.3041 436.109 24.5906 431.519 9.40911C428.083 -1.95551 428.207 -2.02602 441.2 3.90569C456.268 10.7846 472.088 25.4233 475.376 35.5312C476.757 39.7774 478.875 61.9193 480.082 84.7351C481.289 107.551 483.506 132.032 485.009 139.135C490.176 163.559 505.713 196.622 515.443 203.895C518.363 206.078 518.461 206.972 515.939 208.413C511.368 211.026 502.117 210.392 490.437 206.665L490.436 206.663Z" fill="#5A517E"/>
<path d="M534.299 181.306C519.971 175.075 507.152 163.092 503.096 152.137C501.449 147.689 499.178 127.536 498.05 107.353C496.921 87.1697 494.188 62.1415 491.976 51.7347C489.764 41.3278 488.568 32.8125 489.319 32.8125C497.795 32.8125 524.597 49.7067 529.001 57.8257C530.648 60.861 533.287 79.9543 534.865 100.257C537.874 138.981 542.513 153.425 558.564 174.053C564.929 182.233 565.424 184.103 561.506 185.183C553.078 187.506 546.351 186.547 534.299 181.306Z" fill="#0D5060"/>
<path d="M173.828 266.629C169.792 275.678 165.43 284.598 160.742 293.387C156.055 302.111 151.139 310.379 145.996 318.191C140.918 326.004 135.71 333.23 130.371 339.871C125.033 346.447 119.727 352.143 114.453 356.961C109.245 361.714 104.134 365.457 99.1211 368.191C94.1732 370.861 89.4857 372.195 85.0586 372.195C83.2357 372.195 81.543 371.87 79.9805 371.219C78.418 370.568 77.0508 369.689 75.8789 368.582C74.707 367.41 73.7956 366.043 73.1445 364.48C72.4935 362.918 72.168 361.225 72.168 359.402V312.039L21.7773 368.387C20.4753 369.689 19.043 370.665 17.4805 371.316C15.9831 371.902 14.4206 372.195 12.793 372.195C11.0352 372.195 9.375 371.87 7.8125 371.219C6.3151 370.568 4.98047 369.689 3.80859 368.582C2.63672 367.41 1.69271 366.043 0.976562 364.48C0.325521 362.918 0 361.225 0 359.402V266.629H25.3906V326.785L75.9766 270.242C77.7995 268.419 79.9479 267.28 82.4219 266.824C84.9609 266.303 87.4349 266.564 89.8438 267.605C92.2526 268.582 94.1406 270.145 95.5078 272.293C96.9401 274.376 97.6562 276.688 97.6562 279.227V339.578C103.125 334.305 108.073 328.738 112.5 322.879C116.927 317.02 121.029 310.997 124.805 304.812C128.646 298.562 132.227 292.247 135.547 285.867C138.932 279.422 142.22 273.009 145.41 266.629H173.828Z" fill="#0D5060"/>
<path d="M287.305 337.234C287.305 340.75 286.686 344.559 285.449 348.66C284.212 352.697 282.194 356.473 279.395 359.988C276.66 363.439 273.047 366.336 268.555 368.68C264.128 371.023 258.724 372.195 252.344 372.195H206.543C203.027 372.195 199.219 371.577 195.117 370.34C191.081 369.103 187.305 367.117 183.789 364.383C180.339 361.583 177.441 357.97 175.098 353.543C172.754 349.051 171.582 343.615 171.582 337.234C171.582 333.719 172.201 329.91 173.438 325.809C174.674 321.707 176.66 317.931 179.395 314.48C182.194 310.965 185.807 308.035 190.234 305.691C194.727 303.348 200.163 302.176 206.543 302.176H252.344V326.395H206.543C203.092 326.395 200.423 327.469 198.535 329.617C196.647 331.701 195.703 334.305 195.703 337.43C195.703 340.75 196.777 343.354 198.926 345.242C201.139 347.065 203.743 347.977 206.738 347.977H252.344C255.794 347.977 258.464 346.935 260.352 344.852C262.24 342.768 263.184 340.164 263.184 337.039V301.59C263.184 298.27 262.142 295.633 260.059 293.68C258.04 291.727 255.469 290.75 252.344 290.75H196.582V266.629H252.344C255.859 266.629 259.635 267.247 263.672 268.484C267.773 269.721 271.549 271.74 275 274.539C278.516 277.273 281.445 280.887 283.789 285.379C286.133 289.806 287.305 295.21 287.305 301.59V337.234Z" fill="#0D5060"/>
<path d="M434.961 266.629C432.096 275.548 428.743 284.337 424.902 292.996C421.061 301.655 416.634 309.923 411.621 317.801C406.673 325.613 401.107 332.872 394.922 339.578C388.802 346.219 381.999 351.98 374.512 356.863C367.09 361.681 358.984 365.49 350.195 368.289C341.471 371.023 331.999 372.391 321.777 372.391C320.02 372.391 318.359 372.065 316.797 371.414C315.234 370.763 313.867 369.884 312.695 368.777C311.523 367.605 310.612 366.271 309.961 364.773C309.31 363.211 308.984 361.551 308.984 359.793V266.629H334.375V346.023C340.56 346.023 346.484 344.689 352.148 342.02C357.878 339.35 363.281 335.835 368.359 331.473C373.438 327.046 378.125 322.033 382.422 316.434C386.784 310.835 390.658 305.105 394.043 299.246C397.428 293.322 400.293 287.527 402.637 281.863C405.046 276.199 406.836 271.121 408.008 266.629H434.961Z" fill="#0D5060"/>
<path d="M557.715 301.59C557.715 305.105 557.096 308.914 555.859 313.016C554.622 317.052 552.604 320.828 549.805 324.344C547.07 327.794 543.457 330.691 538.965 333.035C534.538 335.379 529.134 336.551 522.754 336.551H476.953V312.43H522.754C526.204 312.43 528.874 311.388 530.762 309.305C532.65 307.156 533.594 304.52 533.594 301.395C533.594 298.074 532.52 295.47 530.371 293.582C528.288 291.694 525.749 290.75 522.754 290.75H476.953C473.503 290.75 470.833 291.824 468.945 293.973C467.057 296.056 466.113 298.66 466.113 301.785V337.234C466.113 340.62 467.155 343.257 469.238 345.145C471.387 347.033 474.023 347.977 477.148 347.977H522.754V372.195H476.953C473.438 372.195 469.629 371.577 465.527 370.34C461.491 369.103 457.715 367.117 454.199 364.383C450.749 361.583 447.852 357.97 445.508 353.543C443.164 349.051 441.992 343.615 441.992 337.234V301.59C441.992 298.074 442.611 294.298 443.848 290.262C445.085 286.16 447.07 282.384 449.805 278.934C452.604 275.418 456.217 272.488 460.645 270.145C465.137 267.801 470.573 266.629 476.953 266.629H522.754C526.27 266.629 530.046 267.247 534.082 268.484C538.184 269.721 541.96 271.74 545.41 274.539C548.926 277.273 551.855 280.887 554.199 285.379C556.543 289.806 557.715 295.21 557.715 301.59Z" fill="#0D5060"/>
<path d="M689.648 336.551C689.648 340.913 689.095 344.852 687.988 348.367C686.882 351.818 685.417 354.878 683.594 357.547C681.771 360.151 679.655 362.397 677.246 364.285C674.837 366.108 672.298 367.605 669.629 368.777C667.025 369.949 664.355 370.828 661.621 371.414C658.952 371.935 656.413 372.195 654.004 372.195H608.203C604.688 372.195 600.846 371.577 596.68 370.34C592.513 369.103 588.639 367.085 585.059 364.285C581.543 361.421 578.581 357.742 576.172 353.25C573.828 348.693 572.656 343.126 572.656 336.551V302.176C572.656 295.665 573.828 290.164 576.172 285.672C578.581 281.115 581.543 277.436 585.059 274.637C588.639 271.772 592.513 269.721 596.68 268.484C600.846 267.247 604.688 266.629 608.203 266.629H654.004C660.514 266.629 666.048 267.801 670.605 270.145C675.163 272.488 678.841 275.451 681.641 279.031C684.44 282.547 686.458 286.388 687.695 290.555C688.997 294.721 689.648 298.595 689.648 302.176V336.551ZM664.258 302.371C664.258 298.855 663.379 296.251 661.621 294.559C659.863 292.866 657.324 292.02 654.004 292.02H608.398C605.013 292.02 602.441 292.898 600.684 294.656C598.926 296.349 598.047 298.855 598.047 302.176V336.551C598.047 339.871 598.926 342.41 600.684 344.168C602.441 345.926 605.013 346.805 608.398 346.805H654.004C657.454 346.805 660.026 345.926 661.719 344.168C663.411 342.41 664.258 339.871 664.258 336.551V302.371Z" fill="#0D5060"/>
<path d="M803.711 292.02H746.582C743.132 292.02 740.527 292.898 738.77 294.656C737.012 296.349 736.133 298.855 736.133 302.176V372.195H710.742V302.176C710.742 297.814 711.296 293.908 712.402 290.457C713.509 287.007 714.974 283.979 716.797 281.375C718.685 278.706 720.833 276.46 723.242 274.637C725.651 272.749 728.158 271.219 730.762 270.047C733.431 268.875 736.1 268.029 738.77 267.508C741.504 266.922 744.043 266.629 746.387 266.629H803.711V292.02Z" fill="#0D5060"/>
<path d="M936.914 336.551C936.914 338.96 936.621 341.499 936.035 344.168C935.514 346.837 934.668 349.507 933.496 352.176C932.324 354.78 930.794 357.286 928.906 359.695C927.083 362.104 924.837 364.253 922.168 366.141C919.564 367.964 916.536 369.428 913.086 370.535C909.635 371.642 905.729 372.195 901.367 372.195H855.566C853.158 372.195 850.618 371.935 847.949 371.414C845.28 370.828 842.611 369.949 839.941 368.777C837.337 367.605 834.831 366.108 832.422 364.285C830.013 362.397 827.865 360.151 825.977 357.547C824.154 354.878 822.689 351.818 821.582 348.367C820.475 344.852 819.922 340.913 819.922 336.551V222H845.312V336.551C845.312 339.676 846.289 342.182 848.242 344.07C850.195 345.893 852.637 346.805 855.566 346.805H901.367C904.557 346.805 907.031 345.861 908.789 343.973C910.612 342.085 911.523 339.611 911.523 336.551V302.176C911.523 298.986 910.579 296.512 908.691 294.754C906.803 292.931 904.362 292.02 901.367 292.02H855.566V266.629H901.367C903.776 266.629 906.315 266.922 908.984 267.508C911.654 268.029 914.29 268.875 916.895 270.047C919.564 271.219 922.103 272.749 924.512 274.637C926.921 276.46 929.036 278.706 930.859 281.375C932.682 283.979 934.147 287.007 935.254 290.457C936.361 293.908 936.914 297.814 936.914 302.176V336.551Z" fill="#0D5060"/>
</svg>
