<?xml version="1.0" encoding="UTF-8"?>
<!-- Created with Inkscape (http://www.inkscape.org/) -->
<svg width="2013.5" height="268.89" version="1.1" viewBox="0 0 532.74163 71.142543" xmlns="http://www.w3.org/2000/svg" xmlns:cc="http://creativecommons.org/ns#" xmlns:dc="http://purl.org/dc/elements/1.1/" xmlns:rdf="http://www.w3.org/1999/02/22-rdf-syntax-ns#">
 <metadata>
  <rdf:RDF>
   <cc:Work rdf:about="">
    <dc:format>image/svg+xml</dc:format>
    <dc:type rdf:resource="http://purl.org/dc/dcmitype/StillImage"/>
    <dc:title/>
   </cc:Work>
  </rdf:RDF>
 </metadata>
 <g transform="translate(415.29 -84.536)" fill="#008080" stroke-width="1.4142">
  <path d="m-403.54 154.1c-2.6854-2.5961-13.456-65.062-11.521-66.819 0.96352-0.87494 5.4106-1.5325 10.364-1.5325 5.1494 0 9.2124 0.62293 9.9957 1.5325 0.72585 0.84291 2.4208 7.7783 3.7666 15.412l2.4469 13.879 10.603-15.105c9.3675-13.345 11.138-15.151 15.188-15.501 6.3691-0.54887 8.7509 1.3775 10.012 8.0973 0.59698 3.1813 1.8751 9.3267 2.8402 13.656l1.7548 7.8722 9.9795-14.615 9.9795-14.615h10.603c9.3954 0 10.644 0.27933 10.964 2.4521 0.19862 1.3486-9.3444 16.797-21.207 34.329-20.721 30.625-21.765 31.891-26.6 32.246-2.768 0.20301-5.7745-0.34871-6.6811-1.226-0.9066-0.87734-2.9548-7.3882-4.5516-14.469-1.5968-7.0803-3.2644-13.339-3.7057-13.908-0.44132-0.56931-4.8128 4.672-9.7144 11.647-12.52 17.817-12.904 18.2-18.275 18.2-2.5611 0-5.3698-0.68964-6.2417-1.5325z"/>
  <path d="m-272.37 84.725c-0.29726 0.0026-0.59266 0.01601-0.88265 0.04134-3.6043 0.31491-7.5847 4.5592-27.364 29.18-32.57 40.542-30.421 37.418-27.332 39.74 1.5926 1.197 5.3973 1.9451 9.8904 1.9451 8.0424 0 13.169-2.976 16.952-9.8418 1.9833-3.5986 2.1679-3.6447 14.649-3.6447h12.64l0.83664 5.578c0.46008 3.0678 1.2735 5.9062 1.8077 6.3076 2.293 1.7234 16.634 1.7425 19.678 0.0264 3.0662-1.7286 2.9417-2.5064-5.4565-34.119-4.7268-17.793-9.3793-33.068-10.339-33.945-0.83963-0.76736-2.999-1.2858-5.0798-1.2676zm-7.5401 34.345c0.96086-0.0461 1.5023 1.298 1.9332 4.0721 0.62156 4.0014 0.35851 4.2912-3.8995 4.2912-5.3525 0-5.4647-0.31786-1.7678-5.0214 1.7119-2.1781 2.8863-3.3013 3.7341-3.3419z"/>
  <path d="m-231.25 154.7c-1.6835-2.0472-17.485-65.741-16.694-67.291 1.1226-2.1988 19.772-2.3159 21.655-0.13598 0.72585 0.84063 3.1603 8.8114 5.4099 17.713l4.0902 16.184 12.223-17.406 12.223-17.406 11.034-0.3629c8.7601-0.28814 11.233 0.028 12.002 1.5339 0.58045 1.1369-7.4003 13.317-19.92 30.401-29.295 39.975-27.191 37.699-34.85 37.699-3.5246 0-6.7521-0.41801-7.1722-0.92891z"/>
  <path d="m-177.5 154.03c-2.7618-1.5178-2.5186-3.208 4.8066-33.409 4.2436-17.496 8.4384-32.5 9.322-33.343 2.3582-2.2497 57.19-2.1776 59.681 0.0785 1.2889 1.1672 1.2316 3.2782-0.20807 7.6627l-1.9871 6.0517-18.99 0.34426c-18.052 0.32725-19.038 0.47871-19.961 3.0651-1.9375 5.432-1.4802 5.6696 11.627 6.0408l12.642 0.35808-0.2938 6.084c-0.38433 7.9582-2.8489 9.2415-17.749 9.2415h-11.709l-1.0111 4.5976c-1.759 7.998-2.4182 7.6627 15.066 7.6627 12.022 0 16.607 0.44754 18.059 1.7625 2.8328 2.5654 0.50721 12.694-3.2628 14.21-4.6589 1.874-52.515 1.5266-56.033-0.40673z"/>
  <path d="m-59.6 84.536c-21.201-0.05723-39.828 11.59-46.267 30.171-6.2333 17.986 0.27916 33.672 16.295 39.25 8.0949 2.8191 27.71 1.701 37.52-2.1389 16.276-6.3708 26.951-22.072 26.88-39.532-0.05768-14.103-7.9931-23.467-22.445-26.483-4.0417-0.84364-8.0566-1.2555-11.983-1.2661zm-3.4422 15.925c11.712 0 16.574 6.8078 13.574 19.006-2.0648 8.3946-5.1635 12.931-11.623 17.016-6.6732 4.2202-16.531 4.4572-20.232 0.48627-3.0804-3.3054-3.3567-13.944-0.54517-20.997 2.3775-5.9642 13.965-15.511 18.826-15.511z"/>
  <path d="m80.57 85.165c-9.3889-0.01778-16.553 0.51885-17.618 1.3193-0.98716 0.74195-5.2394 15.5-9.449 32.796-4.2096 17.296-8.0426 31.447-8.5178 31.447s-4.6977-5.7928-9.3829-12.873c-5.0731-7.6666-7.6976-12.875-6.489-12.879 3.2651-9e-3 12.823-7.3941 15.272-11.8 3.2641-5.8714 2.8106-13.852-1.0583-18.622-5.487-6.764-15.507-9.3384-35.628-9.154-9.3049 0.0853-17.642 0.6989-18.527 1.3637-0.88458 0.66485-4.8226 14.363-8.7509 30.441s-7.521 30.434-7.9835 31.902c-0.48488 1.5394 0.24558 3.4862 1.7244 4.5976 3.0996 2.3296 15.277 2.5826 18.991 0.39481 1.6178-0.95297 3.6597-6.0528 5.3986-13.486 1.6099-6.8817 3.5796-11.944 4.6426-11.932 1.0156 0.0124 5.1501 5.5837 9.1875 12.381 4.0374 6.7969 8.5772 12.856 10.088 13.464 4.5344 1.8251 17.142 1.3072 19.973-0.82063 2.3304-1.7515 2.7964-1.7515 5.1268 0 1.9596 1.4728 6.1057 1.9265 17.602 1.9265 25.845 0 41.442-4.6261 47.397-14.058 3.822-6.0535 3.6874-15.596-0.29147-20.665-3.0964-3.9443-3.1016-4.1397-0.19688-6.8358 9.6805-8.985 5.8345-21.487-8.0796-26.266-6.0697-2.0846-10.81-2.6194-23.432-2.6433zm5.1826 15.237c1.6882-0.0185 3.6514 0.23713 5.6136 0.80306 3.0825 0.88904 3.3993 4.5895 0.54108 6.32-1.1215 0.67903-4.5317 1.6358-7.5784 2.126-5.2373 0.84265-5.4832 0.73334-4.5083-2.004 0.56713-1.5924 1.04-3.8605 1.0532-5.0405 0.0143-1.3819 2.0651-2.1737 4.8788-2.2045zm-71.861 1.2847c9.7949 0 13.473 5.3417 6.2844 9.1261-4.5803 2.4112-14.319 2.5626-14.319 0.22272 0-0.92719 0.45884-3.4102 1.0196-5.5175 0.91996-3.4571 1.6052-3.8313 7.0145-3.8313zm64.441 22.359c0.42944 5e-3 0.92408 0.0778 1.5069 0.19533 1.9271 0.38858 4.3691 0.71347 5.4266 0.72347 3.2622 0.0284 7.0492 3.7165 7.0492 6.8652 0 2.0639-1.6488 3.7511-5.3015 5.425-6.3028 2.8882-14.274 3.2567-14.274 0.65991 0-0.97829 0.80896-4.6137 1.7978-8.0791 1.2959-4.5412 1.9337-5.81 3.7946-5.7898z"/>
 </g>
</svg>
