<svg width="596" height="168" viewBox="0 0 596 168" fill="none" xmlns="http://www.w3.org/2000/svg">
<path fill-rule="evenodd" clip-rule="evenodd" d="M405 140C427.091 140 445 122.091 445 100C445 77.9086 427.091 60 405 60C382.909 60 365 77.9086 365 100C365 122.091 382.909 140 405 140Z" fill="#F57952"/>
<mask id="mask0" mask-type="alpha" maskUnits="userSpaceOnUse" x="365" y="60" width="80" height="80">
<path fill-rule="evenodd" clip-rule="evenodd" d="M405 140C427.091 140 445 122.091 445 100C445 77.9086 427.091 60 405 60C382.909 60 365 77.9086 365 100C365 122.091 382.909 140 405 140Z" fill="white"/>
</mask>
<g mask="url(#mask0)">
<path fill-rule="evenodd" clip-rule="evenodd" d="M383.624 60.9961L406.389 82.9825L354.695 90.8152L391.052 123.803L415.265 127.749L445.047 124.906L455.709 84.5791L413.076 62.1593L383.624 60.9961Z" fill="#EA7B4B" fill-opacity="0.8"/>
<g filter="url(#filter0_d)">
<path fill-rule="evenodd" clip-rule="evenodd" d="M364.226 102.75C364.226 102.75 365.361 85.9905 389.299 94.3702C413.237 102.75 434.809 124.137 445.871 107.789C456.934 91.4408 445.871 101.647 445.871 101.647C445.871 101.647 444.259 106.11 438.451 104.465C434.685 103.399 429.144 99.7236 421.175 93.3786C400.914 77.2479 385.65 69.369 369.255 74.2122C352.86 79.0553 364.226 102.75 364.226 102.75Z" fill="#115277"/>
</g>
<g filter="url(#filter1_d)">
<path fill-rule="evenodd" clip-rule="evenodd" d="M366.629 118.118C366.629 118.118 364.001 101.805 388 112.152C411.999 122.498 420.807 129.691 444.522 119.004C468.237 108.318 432.932 129.754 432.932 129.754C432.932 129.754 416.111 136.266 398.889 128.879C381.666 121.493 383.724 143.735 383.724 143.735L366.629 118.118Z" fill="#115277"/>
</g>
<g filter="url(#filter2_d)">
<path fill-rule="evenodd" clip-rule="evenodd" d="M380.599 66.8511C380.599 66.8511 400.217 56.0651 417.494 71.3283C434.771 86.5915 433.608 94.6999 452.552 99.4772C471.495 104.254 429.174 59.8765 429.174 59.8765L386.271 56.5781L380.599 66.8511Z" fill="#115277"/>
</g>
</g>
<path d="M93.52 119.14C94.4533 114.193 95.2933 109.9 96.04 106.26C96.7867 102.527 97.44 99.0733 98 95.9C98.56 92.7267 99.0733 89.6 99.54 86.52C100.1 83.3467 100.66 79.8467 101.22 76.02C101.873 72.1 102.573 67.6667 103.32 62.72C104.16 57.68 105.14 51.66 106.26 44.66C106.54 42.8867 107.007 41.7667 107.66 41.3C108.313 40.74 109.947 40.46 112.56 40.46C113.587 40.46 115.127 40.5533 117.18 40.74C119.233 40.8333 121.287 41.2533 123.34 42C125.393 42.6533 127.167 43.7267 128.66 45.22C130.247 46.62 131.04 48.6267 131.04 51.24C131.04 52.7333 130.76 55.0667 130.2 58.24C129.64 61.32 128.847 64.9133 127.82 69.02C126.887 73.0333 125.767 77.42 124.46 82.18C123.247 86.94 121.987 91.7467 120.68 96.6C119.373 101.453 118.02 106.167 116.62 110.74C115.313 115.313 114.053 119.467 112.84 123.2C111.72 126.84 110.693 129.92 109.76 132.44C108.827 134.96 108.173 136.593 107.8 137.34C107.24 138.367 106.447 139.067 105.42 139.44C104.393 139.813 103.367 140 102.34 140H89.04C86.6133 140 84.56 139.533 82.88 138.6C81.2933 137.667 79.94 136.453 78.82 134.96C77.7933 133.467 76.9533 131.787 76.3 129.92C75.74 128.053 75.3667 126.14 75.18 124.18L68.18 61.32C67.62 65.4267 66.9667 70.0467 66.22 75.18C65.5667 80.3133 64.82 85.54 63.98 90.86C63.2333 96.18 62.4867 101.407 61.74 106.54C60.9933 111.673 60.2467 116.387 59.5 120.68C58.7533 124.88 58.0533 128.473 57.4 131.46C56.7467 134.447 56.1867 136.407 55.72 137.34C55.2533 138.367 54.5067 139.067 53.48 139.44C52.4533 139.813 51.38 140 50.26 140H36.96C34.6267 140 32.6667 139.58 31.08 138.74C29.5867 137.807 28.3267 136.593 27.3 135.1C26.2733 133.607 25.4333 131.927 24.78 130.06C24.1267 128.1 23.5667 126.14 23.1 124.18C19.2733 108.967 16.1467 96.46 13.72 86.66C11.3867 76.86 9.52 69.02 8.12 63.14C6.72 57.1667 5.74 52.8267 5.18 50.12C4.71333 47.32 4.48 45.3133 4.48 44.1C4.48 42.5133 4.94667 41.4867 5.88 41.02C6.90667 40.5533 9.00667 40.32 12.18 40.32C16.1 40.32 19.3667 40.6 21.98 41.16C24.6867 41.72 26.88 42.6067 28.56 43.82C30.24 44.94 31.5 46.48 32.34 48.44C33.2733 50.3067 33.88 52.5933 34.16 55.3C34.16 55.6733 34.2067 56.2333 34.3 56.98C34.3933 57.6333 34.4867 58.7533 34.58 60.34C34.7667 61.9267 35 64.12 35.28 66.92C35.6533 69.6267 36.0733 73.2667 36.54 77.84C37.1 82.4133 37.7533 88.1067 38.5 94.92C39.34 101.64 40.32 109.713 41.44 119.14C42.4667 113.447 43.26 108.873 43.82 105.42C44.4733 101.873 45.0333 98.7933 45.5 96.18C45.9667 93.4733 46.3867 90.9067 46.76 88.48C47.1333 85.96 47.5533 82.88 48.02 79.24C48.58 75.5067 49.1867 70.84 49.84 65.24C50.5867 59.64 51.52 52.36 52.64 43.4C52.7333 42.7467 53.1067 42.2333 53.76 41.86C54.5067 41.4867 55.3933 41.2067 56.42 41.02C57.4467 40.8333 58.5667 40.74 59.78 40.74C61.0867 40.6467 62.3 40.6 63.42 40.6C67.1533 40.6 70.3267 40.8333 72.94 41.3C75.5533 41.6733 77.7 42.3733 79.38 43.4C81.1533 44.4267 82.5533 45.8267 83.58 47.6C84.6067 49.28 85.4467 51.38 86.1 53.9C86.38 55.1133 86.7067 56.7933 87.08 58.94C87.4533 60.9933 87.8733 64.3067 88.34 68.88C88.9 73.4533 89.5533 79.7533 90.3 87.78C91.14 95.7133 92.2133 106.167 93.52 119.14ZM131.696 122.78C131.696 114.38 135.476 107.8 143.036 103.04C150.596 98.28 161.75 95.7133 176.496 95.34C176.59 94.3133 176.636 93.4733 176.636 92.82C176.73 92.0733 176.776 91.1867 176.776 90.16C176.776 87.1733 176.216 84.7933 175.096 83.02C173.976 81.2467 171.643 80.36 168.096 80.36C166.136 80.36 164.55 80.64 163.336 81.2C162.123 81.76 161.143 82.5533 160.396 83.58C159.65 84.5133 159.043 85.68 158.576 87.08C158.11 88.48 157.69 90.02 157.316 91.7C157.13 92.54 156.71 93.1 156.056 93.38C155.403 93.5667 154.376 93.66 152.976 93.66C143.456 93.66 138.696 90.0667 138.696 82.88C138.696 79.9867 139.35 77.2333 140.656 74.62C142.056 72.0067 144.063 69.7667 146.676 67.9C149.383 65.94 152.743 64.4 156.756 63.28C160.77 62.16 165.436 61.6 170.756 61.6C181.116 61.6 188.63 63.7467 193.296 68.04C197.963 72.3333 200.296 78.4 200.296 86.24C200.296 87.2667 200.156 89.1333 199.876 91.84C199.69 94.4533 199.41 97.2533 199.036 100.24C198.756 103.133 198.476 105.887 198.196 108.5C198.01 111.113 197.916 112.933 197.916 113.96C197.916 116.293 198.336 117.973 199.176 119C200.016 119.933 200.95 120.587 201.976 120.96C203.096 121.333 204.076 121.613 204.916 121.8C205.756 121.987 206.176 122.453 206.176 123.2C206.176 125.253 205.896 127.353 205.336 129.5C204.776 131.647 203.843 133.607 202.536 135.38C201.323 137.153 199.596 138.6 197.356 139.72C195.21 140.84 192.55 141.4 189.376 141.4C184.896 141.4 181.536 140.327 179.296 138.18C177.056 136.033 175.563 133.047 174.816 129.22C172.576 132.487 169.636 135.333 165.996 137.76C162.45 140.187 157.783 141.4 151.996 141.4C149.196 141.4 146.536 141.073 144.016 140.42C141.59 139.767 139.443 138.693 137.576 137.2C135.803 135.707 134.356 133.793 133.236 131.46C132.21 129.033 131.696 126.14 131.696 122.78ZM175.236 106.82C172.81 106.82 170.43 107.007 168.096 107.38C165.763 107.753 163.663 108.36 161.796 109.2C160.023 109.947 158.576 110.973 157.456 112.28C156.336 113.587 155.776 115.173 155.776 117.04C155.776 119.187 156.43 120.68 157.736 121.52C159.136 122.36 160.63 122.78 162.216 122.78C163.71 122.78 165.203 122.453 166.696 121.8C168.19 121.147 169.496 120.167 170.616 118.86C171.83 117.46 172.856 115.78 173.696 113.82C174.536 111.86 175.05 109.527 175.236 106.82ZM245.749 122.22C246.869 118.3 247.896 114.427 248.829 110.6C249.856 106.773 250.836 102.713 251.769 98.42C252.796 94.0333 253.869 89.2733 254.989 84.14C256.203 78.9133 257.603 72.9867 259.189 66.36C259.469 65.0533 259.889 64.2133 260.449 63.84C261.009 63.3733 262.223 63.14 264.089 63.14C265.489 63.14 267.356 63.1867 269.689 63.28C272.023 63.3733 274.309 63.7 276.549 64.26C278.789 64.82 280.703 65.66 282.289 66.78C283.969 67.9 284.809 69.44 284.809 71.4C284.809 72.9867 284.249 75.5533 283.129 79.1C282.009 82.6467 280.563 86.7067 278.789 91.28C277.016 95.76 275.009 100.473 272.769 105.42C270.623 110.367 268.523 115.033 266.469 119.42C264.416 123.807 262.503 127.68 260.729 131.04C258.956 134.307 257.649 136.593 256.809 137.9C256.063 138.927 255.409 139.533 254.849 139.72C254.289 139.907 253.356 140 252.049 140H239.589C237.629 140 235.996 139.673 234.689 139.02C233.476 138.273 232.449 137.34 231.609 136.22C230.769 135.1 230.069 133.84 229.509 132.44C228.949 130.947 228.436 129.407 227.969 127.82C225.263 118.487 222.883 110.507 220.829 103.88C218.869 97.16 217.189 91.56 215.789 87.08C214.389 82.6 213.269 79.0533 212.429 76.44C211.589 73.7333 210.936 71.68 210.469 70.28C210.003 68.7867 209.676 67.8067 209.489 67.34C209.303 66.78 209.209 66.4067 209.209 66.22C209.303 65.5667 209.769 64.8667 210.609 64.12C211.449 63.3733 212.523 63 213.829 63C218.123 63 221.763 63.1867 224.749 63.56C227.829 63.84 230.349 64.4 232.309 65.24C234.363 66.08 235.903 67.2467 236.929 68.74C238.049 70.2333 238.843 72.1933 239.309 74.62C239.403 75.2733 239.589 76.58 239.869 78.54C240.149 80.5 240.429 82.88 240.709 85.68C241.083 88.3867 241.503 91.42 241.969 94.78C242.436 98.0467 242.856 101.36 243.229 104.72C243.696 107.987 244.116 111.16 244.489 114.24C244.956 117.32 245.376 119.98 245.749 122.22ZM323.275 141.4C319.169 141.4 315.062 140.887 310.955 139.86C306.942 138.833 303.302 137.06 300.035 134.54C296.862 132.02 294.249 128.66 292.195 124.46C290.142 120.26 289.115 114.987 289.115 108.64C289.115 106.307 289.302 103.507 289.675 100.24C290.049 96.9733 290.749 93.6133 291.775 90.16C292.895 86.7067 294.389 83.3 296.255 79.94C298.215 76.4867 300.735 73.4067 303.815 70.7C306.895 67.9933 310.629 65.8 315.015 64.12C319.402 62.44 324.629 61.6 330.695 61.6C335.549 61.6 339.655 62.16 343.015 63.28C346.375 64.4 349.082 65.94 351.135 67.9C353.189 69.7667 354.682 71.96 355.615 74.48C356.549 77 357.015 79.7067 357.015 82.6C357.015 86.8933 356.129 90.5333 354.355 93.52C352.675 96.5067 350.435 99.0267 347.635 101.08C344.929 103.04 341.895 104.58 338.535 105.7C335.175 106.82 331.862 107.707 328.595 108.36C325.329 108.92 322.295 109.293 319.495 109.48C316.789 109.573 314.689 109.62 313.195 109.62C313.195 111.393 313.429 113.167 313.895 114.94C314.455 116.62 315.249 118.113 316.275 119.42C317.302 120.727 318.655 121.8 320.335 122.64C322.015 123.48 324.069 123.9 326.495 123.9C328.922 123.9 330.789 123.527 332.095 122.78C333.495 121.94 334.615 121.053 335.455 120.12C336.295 119.093 336.995 118.207 337.555 117.46C338.209 116.62 339.049 116.2 340.075 116.2C340.542 116.2 341.335 116.34 342.455 116.62C343.669 116.807 344.882 117.273 346.095 118.02C347.309 118.767 348.382 119.793 349.315 121.1C350.249 122.407 350.715 124.087 350.715 126.14C350.715 128.847 349.875 131.18 348.195 133.14C346.515 135.1 344.322 136.687 341.615 137.9C339.002 139.113 336.062 140 332.795 140.56C329.529 141.12 326.355 141.4 323.275 141.4ZM325.935 80.22C323.882 80.22 322.109 80.8267 320.615 82.04C319.215 83.16 318.002 84.6067 316.975 86.38C316.042 88.1533 315.295 90.1133 314.735 92.26C314.269 94.4067 313.895 96.46 313.615 98.42C319.402 98.3267 324.069 97.3467 327.615 95.48C331.255 93.6133 333.075 90.9533 333.075 87.5C333.075 85.6333 332.469 83.9533 331.255 82.46C330.135 80.9667 328.362 80.22 325.935 80.22Z" fill="#115277"/>
<path d="M495.96 96.46C495.4 96.46 494.747 96.46 494 96.46C493.347 96.3667 492.693 96.2733 492.04 96.18C491.387 95.9933 490.827 95.8067 490.36 95.62C489.893 95.34 489.66 95.0133 489.66 94.64C489.66 93.4267 489.707 92.3067 489.8 91.28C489.893 90.2533 489.94 89.18 489.94 88.06C489.94 86.0067 489.66 84.3267 489.1 83.02C488.54 81.7133 487.42 81.06 485.74 81.06C483.127 81.06 480.933 82.7867 479.16 86.24C477.48 89.6 476.407 94.6867 475.94 101.5C475.753 104.487 475.473 107.893 475.1 111.72C474.82 115.453 474.54 119.093 474.26 122.64C473.98 126.093 473.747 129.173 473.56 131.88C473.373 134.587 473.28 136.36 473.28 137.2C473.28 138.133 472.953 138.833 472.3 139.3C471.647 139.767 470.947 140 470.2 140H465.16C462.267 140 459.887 139.72 458.02 139.16C456.247 138.507 454.8 137.62 453.68 136.5C452.653 135.38 451.907 134.027 451.44 132.44C451.067 130.76 450.88 128.847 450.88 126.7C450.88 125.3 450.927 123.34 451.02 120.82C451.207 118.207 451.487 114.66 451.86 110.18C452.233 105.607 452.653 99.8667 453.12 92.96C453.68 85.96 454.333 77.3267 455.08 67.06C455.267 64.3533 456.247 63 458.02 63H463.48C466.093 63 468.287 63.28 470.06 63.84C471.833 64.4 473.28 65.1933 474.4 66.22C475.52 67.1533 476.313 68.2733 476.78 69.58C477.34 70.8867 477.713 72.24 477.9 73.64C479.02 71.4933 480.327 69.6733 481.82 68.18C483.407 66.5933 485.04 65.3333 486.72 64.4C488.4 63.3733 490.127 62.6733 491.9 62.3C493.673 61.8333 495.307 61.6 496.8 61.6C498.573 61.6 500.347 61.9267 502.12 62.58C503.987 63.2333 505.667 64.2133 507.16 65.52C508.653 66.8267 509.82 68.5067 510.66 70.56C511.593 72.6133 512.06 75.04 512.06 77.84C512.06 80.36 511.687 82.74 510.94 84.98C510.193 87.22 509.12 89.2267 507.72 91C506.32 92.68 504.593 94.0333 502.54 95.06C500.58 95.9933 498.387 96.46 495.96 96.46ZM549.792 141.4C542.606 141.4 536.912 140.373 532.712 138.32C528.512 136.173 525.339 133.513 523.192 130.34C521.046 127.167 519.692 123.76 519.132 120.12C518.572 116.387 518.292 112.98 518.292 109.9C518.292 108.687 518.386 106.307 518.572 102.76C518.852 99.2133 519.179 95.1067 519.552 90.44C519.926 85.7733 520.299 80.8267 520.672 75.6C521.046 70.28 521.419 65.2867 521.792 60.62C522.166 55.86 522.446 51.66 522.632 48.02C522.912 44.38 523.052 41.86 523.052 40.46C523.052 38.4067 523.192 37.24 523.472 36.96C523.752 36.5867 524.592 36.4 525.992 36.4H531.452C534.252 36.4 536.586 36.7267 538.452 37.38C540.319 38.0333 541.812 38.92 542.932 40.04C544.052 41.16 544.846 42.4667 545.312 43.96C545.779 45.36 546.012 46.9 546.012 48.58C546.012 50.1667 545.826 53.2467 545.452 57.82C545.172 62.3933 544.799 67.76 544.332 73.92C546.759 69.72 549.512 66.64 552.592 64.68C555.672 62.6267 559.732 61.6 564.772 61.6C573.266 61.6 579.752 64.4 584.232 70C588.806 75.6 591.092 83.9533 591.092 95.06C591.092 97.9533 590.859 101.127 590.392 104.58C590.019 108.033 589.272 111.487 588.152 114.94C587.126 118.3 585.632 121.613 583.672 124.88C581.806 128.053 579.332 130.853 576.252 133.28C573.172 135.707 569.439 137.667 565.052 139.16C560.759 140.653 555.672 141.4 549.792 141.4ZM556.092 80.22C552.732 80.22 550.072 81.1067 548.112 82.88C546.246 84.6533 544.799 86.8 543.772 89.32C542.746 91.84 542.092 94.5467 541.812 97.44C541.532 100.24 541.392 102.713 541.392 104.86C541.392 111.3 542.279 115.92 544.052 118.72C545.826 121.427 548.486 122.78 552.032 122.78C555.392 122.78 558.006 121.753 559.872 119.7C561.832 117.553 563.279 115.033 564.212 112.14C565.239 109.247 565.892 106.307 566.172 103.32C566.452 100.333 566.592 98 566.592 96.32C566.592 91.0933 565.799 87.1267 564.212 84.42C562.626 81.62 559.919 80.22 556.092 80.22Z" fill="#115277"/>
<defs>
<filter id="filter0_d" x="356.39" y="68.7969" width="98.3982" height="48.9833" filterUnits="userSpaceOnUse" color-interpolation-filters="sRGB">
<feFlood flood-opacity="0" result="BackgroundImageFix"/>
<feColorMatrix in="SourceAlpha" type="matrix" values="0 0 0 0 0 0 0 0 0 0 0 0 0 0 0 0 0 0 127 0"/>
<feOffset/>
<feGaussianBlur stdDeviation="2"/>
<feColorMatrix type="matrix" values="0 0 0 0 0.244385 0 0 0 0 0.437906 0 0 0 0 0.787601 0 0 0 1 0"/>
<feBlend mode="normal" in2="BackgroundImageFix" result="effect1_dropShadow"/>
<feBlend mode="normal" in="SourceGraphic" in2="effect1_dropShadow" result="shape"/>
</filter>
<filter id="filter1_d" x="362.544" y="104.715" width="94.1722" height="43.0198" filterUnits="userSpaceOnUse" color-interpolation-filters="sRGB">
<feFlood flood-opacity="0" result="BackgroundImageFix"/>
<feColorMatrix in="SourceAlpha" type="matrix" values="0 0 0 0 0 0 0 0 0 0 0 0 0 0 0 0 0 0 127 0"/>
<feOffset/>
<feGaussianBlur stdDeviation="2"/>
<feColorMatrix type="matrix" values="0 0 0 0 0.244385 0 0 0 0 0.437906 0 0 0 0 0.787601 0 0 0 1 0"/>
<feBlend mode="normal" in2="BackgroundImageFix" result="effect1_dropShadow"/>
<feBlend mode="normal" in="SourceGraphic" in2="effect1_dropShadow" result="shape"/>
</filter>
<filter id="filter2_d" x="376.599" y="52.5781" width="84.8321" height="51.2589" filterUnits="userSpaceOnUse" color-interpolation-filters="sRGB">
<feFlood flood-opacity="0" result="BackgroundImageFix"/>
<feColorMatrix in="SourceAlpha" type="matrix" values="0 0 0 0 0 0 0 0 0 0 0 0 0 0 0 0 0 0 127 0"/>
<feOffset/>
<feGaussianBlur stdDeviation="2"/>
<feColorMatrix type="matrix" values="0 0 0 0 0.244385 0 0 0 0 0.437906 0 0 0 0 0.787601 0 0 0 1 0"/>
<feBlend mode="normal" in2="BackgroundImageFix" result="effect1_dropShadow"/>
<feBlend mode="normal" in="SourceGraphic" in2="effect1_dropShadow" result="shape"/>
</filter>
</defs>
</svg>
