<svg width="192" height="210" viewBox="0 0 192 210" fill="none" xmlns="http://www.w3.org/2000/svg">
<path d="M45.496 200.649C31.7085 193.512 19.8904 180.733 16.7294 169.546C15.4458 165.003 14.8078 144.755 15.3116 124.552C15.8153 104.349 15.1098 79.2098 13.7439 68.6876C12.3778 58.1652 11.8725 49.595 12.6211 49.6434C21.0746 50.1898 46.4435 68.7679 50.1809 77.1497C51.5785 80.2832 52.6687 99.497 52.6033 119.849C52.4789 158.665 55.9395 173.371 70.2835 194.98C75.9716 203.549 76.3138 205.446 72.3196 206.271C63.7256 208.044 57.094 206.654 45.496 200.649Z" fill="#0D5060"/>
<path d="M118.436 206.663C102.75 201.659 85.7421 186.557 77.749 170.539C71.085 157.183 70.8334 155.323 69.0918 106.567C67.3321 57.3041 64.1089 24.5906 59.5188 9.40911C56.0829 -1.95551 56.2069 -2.02602 69.2004 3.90569C84.2683 10.7846 100.088 25.4233 103.376 35.5312C104.757 39.7774 106.875 61.9193 108.082 84.7351C109.289 107.551 111.506 132.032 113.009 139.135C118.176 163.559 133.713 196.622 143.443 203.895C146.363 206.078 146.461 206.972 143.939 208.413C139.368 211.026 130.117 210.392 118.437 206.665L118.436 206.663Z" fill="#5A517E"/>
<path d="M162.299 181.306C147.971 175.075 135.152 163.092 131.096 152.137C129.449 147.689 127.178 127.536 126.05 107.353C124.921 87.1697 122.188 62.1415 119.976 51.7347C117.764 41.3278 116.568 32.8125 117.319 32.8125C125.795 32.8125 152.597 49.7067 157.001 57.8257C158.648 60.861 161.287 79.9543 162.865 100.257C165.874 138.981 170.513 153.425 186.564 174.053C192.929 182.233 193.424 184.103 189.506 185.183C181.078 187.506 174.351 186.547 162.299 181.306Z" fill="#0D5060"/>
</svg>
